<svg preserveAspectRatio="none" overflow="visible" style="display: block;" width="110.58" height="110.58" viewBox="0 0 110.58 110.58" fill="none" xmlns="http://www.w3.org/2000/svg">
<g id="Checked-Circle--Streamline-Beveled-Scribbles">
<path id="Vector" fill-rule="evenodd" clip-rule="evenodd" d="M98.3861 10.5244C92.1582 14.7733 89.0731 17.2758 81.3903 24.319C74.8131 30.3141 74.9297 30.256 73.0673 28.3351C69.2259 24.2023 55.1401 20.477 51.124 22.6307C49.203 23.6203 49.4363 25.5993 51.4733 25.5993C57.0025 25.6573 62.1247 28.2184 66.4901 31.8851C70.3896 35.203 70.3896 35.0284 64.8605 40.4994C58.9234 46.3198 50.4838 55.9236 45.769 62.1514L42.1603 66.9243L39.1338 62.4427C31.975 51.7328 24.2336 46.4365 19.4608 48.939C17.7145 49.8705 18.0058 50.4525 23.2441 55.9822C27.8423 60.8131 32.6152 67.6811 35.9906 74.3744C38.7264 79.7879 45.4782 79.7879 50.0764 71.9884C53.3943 66.3422 61.95 55.5748 68.9927 48.2408L75.2791 41.6636L76.7921 45.0395C90.2958 75.2478 57.3518 110.228 29.6466 95.0954C1.35937 79.6132 7.76136 29.9647 38.6103 25.5412C44.6634 24.6678 44.7795 22.6307 38.7844 21.874C23.3022 19.7788 3.51306 38.113 1.41743 56.3896C-2.5406 91.254 31.8584 113.954 65.5006 98.7622C85.9304 89.5658 95.4756 56.5057 82.8452 39.0444C81.9143 37.7641 81.1575 36.5419 81.1575 36.2506C81.1575 35.0289 91.5761 25.7154 102.635 17.2178C115.091 7.61396 108.63 3.53983 98.3861 10.5244Z" fill="#7C58D7"/>
</g>
</svg>
